<svg viewBox="0 0 72 88" fill="none" xmlns="http://www.w3.org/2000/svg" aria-hidden="true" shape-rendering="geometricPrecision">
  <defs>
    <linearGradient id="petalSage" x1="14" y1="10" x2="58" y2="48" gradientUnits="userSpaceOnUse">
      <stop stop-color="#f0faf5"/>
      <stop offset="0.55" stop-color="#c5e8d4"/>
      <stop offset="1" stop-color="#8ec4a8"/>
    </linearGradient>
    <linearGradient id="petalSageInner" x1="28" y1="18" x2="44" y2="42" gradientUnits="userSpaceOnUse">
      <stop stop-color="#f8fffb"/>
      <stop offset="1" stop-color="#dbefe7"/>
    </linearGradient>
    <linearGradient id="leafSage" x1="18" y1="52" x2="54" y2="86" gradientUnits="userSpaceOnUse">
      <stop stop-color="#c5e8d4"/>
      <stop offset="1" stop-color="#2f8a6f"/>
    </linearGradient>
  </defs>
  <path d="M35 56 C33 64 31 74 35 84" stroke="url(#leafSage)" stroke-width="2.8" stroke-linecap="round"/>
  <path d="M34 68 C27 71 20 67 17 61" stroke="#4a9a7d" stroke-width="1.8" stroke-linecap="round"/>
  <path d="M37 69 C45 72 51 68 54 62" stroke="#4a9a7d" stroke-width="1.8" stroke-linecap="round"/>
  <ellipse cx="36" cy="34" rx="13" ry="17" fill="url(#petalSage)" stroke="#8ec4a8" stroke-width="0.7" transform="rotate(-24 36 34)"/>
  <ellipse cx="36" cy="34" rx="13" ry="17" fill="url(#petalSage)" stroke="#8ec4a8" stroke-width="0.7" transform="rotate(12 36 34)"/>
  <ellipse cx="36" cy="34" rx="13" ry="17" fill="#d6eee5" stroke="#7ab89e" stroke-width="0.65" transform="rotate(48 36 34)"/>
  <ellipse cx="36" cy="34" rx="13" ry="17" fill="#a8d4be" stroke="#6aab8f" stroke-width="0.65" transform="rotate(84 36 34)"/>
  <ellipse cx="36" cy="34" rx="13" ry="17" fill="url(#petalSage)" stroke="#8ec4a8" stroke-width="0.7" transform="rotate(120 36 34)"/>
  <ellipse cx="36" cy="34" rx="13" ry="17" fill="#e3f3eb" stroke="#a8d4be" stroke-width="0.65" transform="rotate(156 36 34)"/>
  <circle cx="36" cy="34" r="9" fill="url(#petalSageInner)" stroke="#c5e8d4" stroke-width="0.5"/>
  <circle cx="36" cy="34" r="4.8" fill="#dff0e8"/>
</svg>
